<svg width="42" height="39" viewBox="0 0 42 39" fill="none" xmlns="http://www.w3.org/2000/svg">
<path d="M1.5 0C0.671573 0 0 0.671573 0 1.5C0 2.32843 0.671573 3 1.5 3H4.27137C4.61117 3 4.9085 3.22845 4.99605 3.55675L10.1115 22.7398C6.88356 23.577 4.5 26.5102 4.5 30C4.5 30.8284 5.17157 31.5 6 31.5H37.5C38.3284 31.5 39 30.8284 39 30C39 29.1716 38.3284 28.5 37.5 28.5H7.75606C8.37381 26.7522 10.0407 25.5 12 25.5H34.4365C35.0102 25.5 35.5336 25.1728 35.7849 24.6571C38.0553 19.998 40.0366 15.1721 41.7054 10.2025C41.8382 9.80714 41.8004 9.37433 41.601 9.00799C41.4016 8.64165 41.0587 8.37485 40.6546 8.27165C31.011 5.80884 20.9072 4.5 10.5 4.5C9.78434 4.5 9.07011 4.50619 8.35736 4.51852L7.89476 2.78376C7.457 1.14218 5.9703 0 4.27137 0H1.5Z" fill="white"/>
<path d="M4.5 36C4.5 34.3431 5.84315 33 7.5 33C9.15685 33 10.5 34.3431 10.5 36C10.5 37.6569 9.15685 39 7.5 39C5.84315 39 4.5 37.6569 4.5 36Z" fill="white"/>
<path d="M30 36C30 34.3431 31.3431 33 33 33C34.6569 33 36 34.3431 36 36C36 37.6569 34.6569 39 33 39C31.3431 39 30 37.6569 30 36Z" fill="white"/>
</svg>
